<svg width="60" height="34" viewBox="0 0 60 34" fill="none" xmlns="http://www.w3.org/2000/svg">
<g id="logo_WiASSUR 1" clip-path="url(#clip0_40_1373)">
<g id="logo_WiASSUR">
<path id="Trac&#195;&#169; 1" d="M41.4892 11.3169L31.5642 31.0419L30.3562 33.4499L23.4002 19.7189L16.4852 33.3499C16.2582 33.2229 16.2202 33.0179 16.1382 32.8499C10.8015 22.2686 5.46183 11.6859 0.119159 1.10193C-0.163841 0.542927 0.100159 0.541927 0.482159 0.549927C1.80722 0.5408 3.117 0.833154 4.3124 1.40487C5.50781 1.97659 6.55754 2.81269 7.38216 3.84993C8.65867 5.61045 9.76149 7.49057 10.6752 9.46393C12.5162 12.9999 14.2952 16.5689 16.1032 20.1219C16.2032 20.3219 16.2432 20.5649 16.5032 20.7129L23.4002 7.56593L30.3432 20.7939C30.4952 20.5129 30.6052 20.3229 30.7022 20.1249C33.0352 15.4249 35.3742 10.7249 37.9262 6.13393C38.0892 5.83993 38.2752 5.55793 38.4522 5.26993C38.7792 5.26993 38.8572 5.53693 38.9682 5.75293C39.7892 7.36593 40.5892 8.99093 41.3982 10.6109C41.5112 10.8289 41.6742 11.0549 41.4912 11.3159" fill="#26728F"/>
<path id="Trac&#195;&#169; 2" d="M44.6249 5.26807C45.9399 7.35607 47.0539 9.55607 48.1709 11.7511C51.7423 18.7791 55.2973 25.8157 58.8359 32.8611C58.9109 33.0081 58.9799 33.1611 59.0539 33.3101C57.6803 33.5035 56.2799 33.3299 54.9951 32.8069C53.7103 32.2838 52.5869 31.4299 51.7389 30.3321C50.4916 28.6302 49.4135 26.8106 48.5199 24.8991C46.1379 20.4141 43.8529 15.8791 41.6029 11.3291C41.5488 11.2047 41.5286 11.0683 41.5442 10.9336C41.5598 10.7989 41.6108 10.6707 41.6919 10.5621C42.4969 8.95407 43.2919 7.33907 44.1079 5.73607C44.2169 5.52307 44.2979 5.25207 44.6259 5.26907" fill="#E0338A"/>
<path id="Trac&#195;&#169; 3" d="M44.6252 5.26776C44.4852 5.36318 44.3799 5.50143 44.3251 5.66176L41.7522 10.7918C41.6491 10.952 41.5965 11.1394 41.6012 11.3298L41.4882 11.3168C41.3408 10.7923 41.1199 10.2913 40.8322 9.82876C40.1752 8.49576 39.5002 7.16876 38.8322 5.84176C38.7557 5.6224 38.625 5.42597 38.4521 5.27076L38.4682 5.12976C39.1091 3.76962 40.1576 2.64279 41.4682 1.90576H41.5952C42.296 2.19872 42.9122 2.6629 43.3872 3.25576C43.9098 3.77216 44.3299 4.38294 44.6252 5.05576V5.26776Z" fill="#E0338A"/>
<path id="Trac&#195;&#169; 4" d="M41.6121 21.2388C42.3869 21.2398 43.1297 21.5485 43.677 22.097C44.2244 22.6455 44.5316 23.3889 44.5311 24.1638C44.5305 24.9387 44.2223 25.6816 43.6742 26.2293C43.1261 26.7771 42.3829 27.0848 41.608 27.0848C40.8332 27.0848 40.09 26.7771 39.5419 26.2293C38.9938 25.6816 38.6856 24.9387 38.6851 24.1638C38.6845 23.3889 38.9917 22.6455 39.5391 22.097C40.0864 21.5485 40.8292 21.2398 41.6041 21.2388H41.6121Z" fill="#E0338A"/>
<path id="Trac&#195;&#169; 5" d="M44.6292 5.06287C44.2492 4.56287 43.8692 4.06287 43.4742 3.57687C42.8992 2.96668 42.2714 2.40851 41.5981 1.90887C42.9904 1.05311 44.5871 0.587513 46.2211 0.560871C46.8661 0.537871 46.9022 0.625871 46.6212 1.17987C45.9612 2.47854 45.2985 3.77287 44.6331 5.06287" fill="#26728F"/>
<path id="Trac&#195;&#169; 6" d="M41.4709 1.90599C40.3207 2.83046 39.3103 3.91636 38.4709 5.12999C37.7999 3.79799 37.1409 2.45899 36.4449 1.13699C36.2059 0.678993 36.3249 0.536993 36.8009 0.556993C38.4501 0.573345 40.0634 1.03979 41.4669 1.90599" fill="#E0338A"/>
</g>
</g>
<defs>
<clipPath id="clip0_40_1373">
<rect width="59.054" height="32.898" fill="white" transform="translate(0 0.550781)"/>
</clipPath>
</defs>
</svg>
